<svg width="275" height="270" viewBox="0 0 275 270" fill="none"
    xmlns="http://www.w3.org/2000/svg">
    <path  fill-rule="evenodd" clip-rule="evenodd" d="M14.9854 122.714C23.265 122.436 30.2017 128.924 30.4789 137.203C30.872 148.942 33.2496 160.83 37.8294 172.425C59.2343 226.617 120.518 253.196 174.709 231.791C182.415 228.748 191.128 232.527 194.171 240.232C197.214 247.937 193.435 256.65 185.73 259.694C116.128 287.185 37.4187 253.048 9.9271 183.446C4.06753 168.611 1.00213 153.331 0.495732 138.207C0.218499 129.928 6.70572 122.991 14.9854 122.714Z" fill="#fde047"/>

    <path fill-rule="evenodd" clip-rule="evenodd" d="M236.484 97.5849C215.079 43.393 153.796 16.8139 99.6042 38.2188C68.3205 50.5753 46.2369 76.2036 37.2682 106.15C34.8915 114.086 26.5314 118.593 18.5953 116.216C10.6593 113.839 6.15267 105.479 8.52942 97.5431C20.0221 59.169 48.3877 26.193 88.5833 10.3164C158.185 -17.1751 236.895 16.9621 264.387 86.564C267.43 94.269 263.651 102.982 255.946 106.026C248.241 109.069 239.528 105.29 236.484 97.5849Z" fill="#C1C1C1"/>

    <path fill-rule="evenodd" clip-rule="evenodd" d="M264.411 111.264L243.97 117.376C244.828 115.827 245.948 114.438 247.28 113.271L259.362 109.661C261.126 109.893 262.836 110.436 264.411 111.264ZM270.788 117.679L242.199 126.221C242.095 125.184 242.096 124.14 242.201 123.104L269.052 115.078C269.723 115.88 270.305 116.752 270.788 117.679ZM272.811 125.331C272.674 124.337 272.516 123.349 272.333 122.362L242.949 131.147C243.081 132.15 243.205 133.156 243.304 134.154L272.811 125.331ZM273.454 130.321C273.569 131.322 273.662 132.329 273.741 133.341L243.75 142.304C243.739 141.279 243.712 140.252 243.66 139.224L273.454 130.321ZM274.124 141.519C274.111 140.487 274.09 139.457 274.046 138.427L243.669 147.508C243.641 147.894 243.615 148.278 243.59 148.66L243.59 148.663C243.546 149.339 243.501 150.011 243.439 150.686L274.124 141.519ZM274.092 146.7C274.056 147.755 274.013 148.812 273.943 149.861L242.224 159.345C242.439 158.252 242.622 157.161 242.809 156.054L242.809 156.05L274.092 146.7ZM273.113 158.394C273.262 157.321 273.388 156.246 273.496 155.169L240.985 164.88C240.687 166.023 240.368 167.159 240.028 168.288L273.113 158.394ZM272.235 163.834C272.047 164.936 271.834 166.037 271.59 167.139L236.607 177.598C237.11 176.432 237.593 175.249 238.041 174.059L272.235 163.834ZM269.321 176.104C269.667 174.995 269.982 173.865 270.268 172.715L233.707 183.641C233.05 184.899 232.355 186.142 231.621 187.371L269.321 176.104ZM267.465 181.836C267.029 183.013 266.59 184.183 266.149 185.346L224.324 197.843C225.39 196.537 226.419 195.186 227.408 193.808L267.465 181.836ZM263.401 191.885L263.687 191.255L217.92 204.935C216.297 206.531 214.605 208.084 212.85 209.562L261.931 194.892C262.345 194.123 262.704 193.36 263.069 192.587C263.178 192.354 263.289 192.12 263.401 191.885ZM258.732 201.051C258.006 202.324 257.262 203.588 256.486 204.83L196.849 222.658C197.809 221.029 199.069 219.597 200.562 218.438L258.732 201.051ZM249.218 215.269C250.244 213.959 251.231 212.629 252.193 211.267L194.849 228.41C194.718 229.449 194.689 230.498 194.764 231.543L249.218 215.269ZM243.405 222.179C242.051 223.656 240.66 225.11 239.233 226.54L197.432 239.037C197.278 238.813 197.127 238.581 196.979 238.339C196.588 237.708 196.245 237.049 195.953 236.366L243.405 222.179ZM223.782 239.452C226.127 237.81 228.408 236.089 230.625 234.29L201.467 243.006C202.707 243.841 204.065 244.486 205.495 244.921L223.782 239.452Z" fill="#626262" />
</svg>
